<svg height="512" viewBox="0 0 64 64" width="512" xmlns="http://www.w3.org/2000/svg"><g id="online_learning-tablet-document-pen-hand" data-name="online learning-tablet-document-pen-hand"><path d="m51 14h-5v-11a1 1 0 0 0 -1-1h-34a1 1 0 0 0 -1 1v11h-5a3.009 3.009 0 0 0 -3 3v30a3.009 3.009 0 0 0 3 3h8v6a.937.937 0 0 0 .07.37l2 5a1 1 0 0 0 .93.63h14a1 1 0 0 0 .93-.63l2-5.01a.937.937 0 0 0 .07-.37v-5.99h18a3.009 3.009 0 0 0 3-3v-30a3.009 3.009 0 0 0 -3-3zm-39-10h32v30h-32zm1 44h-8a1 1 0 0 1 -1-1v-30a1 1 0 0 1 1-1h5v2h-3a1 1 0 0 0 -1 1v26a1 1 0 0 0 1 1h6zm0-6v2h-5v-24h2v15a1 1 0 0 0 1 1h34a1 1 0 0 0 1-1v-15h2v24h-27v-2a4 4 0 0 0 -8 0zm18 13.8-1.68 4.2h-12.64l-1.68-4.19v-13.81a2 2 0 0 1 4 0v11a1 1 0 0 0 1 1 3.009 3.009 0 0 1 3 3h2a5.009 5.009 0 0 0 -4-4.9v-2.1h10zm21-8.8a1 1 0 0 1 -1 1h-30v-2h28a1 1 0 0 0 1-1v-26a1 1 0 0 0 -1-1h-3v-2h5a1 1 0 0 1 1 1z"/><path d="m59 6a3.009 3.009 0 0 0 -3 3v40a.986.986 0 0 0 .03.24l2 8a1 1 0 0 0 1.94 0l2-8a.986.986 0 0 0 .03-.24v-40a3.009 3.009 0 0 0 -3-3zm1 42.88-1 4-1-4v-39.88a1 1 0 0 1 2 0z"/><path d="m14 6h4v2h-4z"/><path d="m20 6h22v2h-22z"/><path d="m14 10h28v2h-28z"/><path d="m14 14h28v2h-28z"/><path d="m14 18h28v2h-28z"/><path d="m14 22h28v2h-28z"/><path d="m14 26h28v2h-28z"/><path d="m14 30h28v2h-28z"/></g></svg>